<svg xmlns="http://www.w3.org/2000/svg" height="24px" viewBox="0 -960 960 960" width="24px">

  <!-- Pin background -->
  <g fill="#1976d2">
    <circle cx="480" cy="-520" r="320" stroke="#f3f3f3" stroke-width="65"></circle>
  </g>

  <!-- Centered church icon -->
  <g transform="translate(480,-520) scale(0.55) translate(-480,480)">
    <path fill="#f3f3f3" d="M80-80v-320l160-71v-129l200-100v-60h-80v-80h80v-80h80v80h80v80h-80v60l200 100v129l160 71v320H520v-160q0-17-11.5-28.5T480-280q-17 0-28.5 11.5T440-240v160H80Zm80-80h200v-82q0-51 35-86.5t85-35.5q50 0 85 35.5t35 86.5v82h200v-192l-160-72v-134l-160-82-160 82v134l-160 72v192Zm362.5-277.5Q540-455 540-480t-17.5-42.5Q505-540 480-540t-42.5 17.5Q420-505 420-480t17.5 42.5Q455-420 480-420t42.5-17.5ZM480-400Z"></path>
  </g>

</svg>